<?xml version="1.0" standalone="no"?>
<!DOCTYPE svg PUBLIC "-//W3C//DTD SVG 20010904//EN"
 "http://www.w3.org/TR/2001/REC-SVG-20010904/DTD/svg10.dtd">
<svg version="1.0" xmlns="http://www.w3.org/2000/svg"
 width="700.000000pt" height="700.000000pt" viewBox="0 0 700.000000 700.000000"
 preserveAspectRatio="xMidYMid meet">
<metadata>
Created by potrace 1.11, written by Peter Selinger 2001-2013
</metadata>
<g transform="translate(0.000000,700.000000) scale(0.100000,-0.100000)"
fill="#000000" stroke="none">
<path d="M1438 6485 c-157 -25 -355 -108 -472 -198 -251 -195 -408 -450 -451
-734 -22 -147 -22 -3959 0 -4106 42 -280 186 -519 431 -716 134 -108 322 -189
501 -216 147 -22 3959 -22 4106 0 284 43 539 200 734 451 93 121 173 315 198
481 22 147 22 3959 0 4106 -42 280 -186 519 -431 716 -134 108 -322 189 -501
216 -140 21 -3980 21 -4115 0z"/>
</g>
</svg>
